<?xml version="1.0" standalone="no"?>
<!DOCTYPE svg PUBLIC "-//W3C//DTD SVG 20010904//EN"
 "http://www.w3.org/TR/2001/REC-SVG-20010904/DTD/svg10.dtd">
<svg version="1.0" xmlns="http://www.w3.org/2000/svg"
 width="1080.000000pt" height="1080.000000pt" viewBox="0 0 1080.000000 1080.000000"
 preserveAspectRatio="xMidYMid meet">

<g transform="translate(0.000000,1080.000000) scale(0.100000,-0.100000)"
fill="#000000" stroke="none">
<path d="M5026 10085 c-5 -20 -13 -25 -36 -25 -35 0 -38 -10 -9 -28 16 -11 19
-19 13 -44 l-6 -32 25 17 c21 14 27 14 43 2 28 -22 34 -18 27 16 -4 24 -2 34
10 41 25 13 20 28 -8 28 -18 0 -28 7 -35 25 -5 14 -11 25 -14 25 -2 0 -7 -11
-10 -25z"/>
<path d="M6392 9808 c-12 -17 -1 -43 18 -43 21 0 34 36 18 47 -18 11 -24 10
-36 -4z"/>
<path d="M6811 9684 l-14 -46 -43 4 c-24 2 -44 0 -44 -4 0 -4 15 -19 34 -33
35 -26 35 -26 21 -66 -16 -45 -8 -49 34 -18 l29 21 38 -26 c21 -14 40 -24 42
-21 3 2 -3 22 -11 44 l-16 40 41 30 42 31 -47 0 c-41 0 -48 3 -62 30 -8 16
-15 36 -15 45 0 31 -16 14 -29 -31z"/>
<path d="M3310 9665 c-7 -18 -17 -25 -36 -25 l-27 0 21 -23 c14 -15 19 -30 15
-45 -6 -24 6 -29 25 -10 9 9 18 9 38 -1 25 -11 26 -10 21 11 -4 15 1 30 15 45
l21 23 -27 0 c-19 0 -29 7 -36 25 -5 14 -12 25 -15 25 -3 0 -10 -11 -15 -25z"/>
<path d="M4156 9625 c-5 -19 -13 -25 -33 -25 -25 0 -26 -1 -8 -20 11 -12 16
-29 13 -45 -6 -29 -5 -29 21 -13 15 9 25 9 45 0 25 -11 26 -11 20 15 -5 20 -2
30 17 44 l24 19 -31 0 c-25 0 -33 5 -38 25 -4 14 -10 25 -15 25 -5 0 -12 -11
-15 -25z"/>
<path d="M5468 9642 c-14 -3 -16 -8 -8 -21 5 -10 8 -20 5 -22 -2 -2 7 -4 20
-4 16 0 25 7 28 22 4 23 -13 32 -45 25z"/>
<path d="M2762 9458 c-12 -17 -1 -43 18 -43 21 0 34 36 18 47 -18 11 -24 10
-36 -4z"/>
<path d="M7338 9420 c-13 -12 -14 -18 -5 -30 17 -21 31 -22 43 -2 8 13 6 21
-6 32 -14 14 -17 14 -32 0z"/>
<path d="M1976 9395 c-5 -18 -13 -25 -31 -25 -28 0 -32 -12 -10 -30 11 -9 14
-22 9 -44 l-6 -30 26 17 c24 16 28 16 51 1 25 -16 25 -16 19 13 -4 20 -1 33
10 42 24 20 19 34 -9 27 -22 -6 -26 -3 -31 24 -8 37 -20 39 -28 5z"/>
<path d="M8236 9367 c-5 -20 -13 -27 -31 -27 -28 0 -32 -12 -10 -30 11 -9 14
-22 10 -42 -7 -32 0 -35 26 -12 16 14 20 14 43 -1 l26 -17 -7 32 c-4 25 -2 35
10 42 25 13 21 28 -8 28 -14 0 -25 4 -25 8 0 5 -6 16 -14 27 -12 17 -13 17
-20 -8z"/>
<path d="M5932 9312 c-9 -26 -16 -32 -39 -32 l-28 0 25 -19 c21 -17 23 -22 12
-45 -13 -29 -6 -33 24 -12 17 12 22 12 39 0 28 -21 36 -17 25 12 -9 21 -6 29
12 45 l23 18 -27 1 c-22 0 -31 7 -41 32 l-13 33 -12 -33z"/>
<path d="M4550 9277 c-21 -16 -14 -46 10 -44 25 2 35 27 18 43 -10 10 -16 10
-28 1z"/>
<path d="M5310 9073 c-591 -33 -1131 -214 -1590 -531 -52 -36 -97 -68 -100
-72 -3 -3 -25 -21 -50 -40 -114 -88 -240 -209 -343 -330 -45 -52 -84 -97 -87
-100 -22 -22 -160 -218 -186 -265 -6 -11 -34 -60 -62 -108 -128 -223 -256
-593 -291 -842 -47 -333 -42 -704 15 -990 58 -292 125 -487 283 -820 31 -66
79 -168 106 -226 l50 -106 3 131 c4 159 -36 904 -49 929 -8 14 -6 22 4 30 8 7
17 33 20 58 18 137 102 222 262 264 64 16 342 39 406 33 46 -4 44 -15 29 167
-14 164 -14 490 0 600 19 154 59 266 111 309 38 32 76 42 219 56 155 15 167
18 173 42 6 22 27 16 27 -8 0 -12 7 -14 28 -10 38 8 330 32 692 58 91 6 376
12 633 12 l468 1 -3 75 c-3 74 -3 75 -31 78 -16 2 -34 -2 -42 -8 -22 -19 -32
-5 -46 66 -12 59 -15 65 -33 59 -64 -19 -93 -18 -110 6 -9 13 -16 36 -16 52 0
57 -12 65 -91 62 -81 -3 -83 -5 -99 -82 -18 -84 -91 -129 -145 -89 -16 11 -21
31 -26 102 -8 120 -13 124 -168 124 -64 0 -122 -4 -130 -9 -8 -5 -30 -40 -50
-78 -28 -53 -44 -72 -74 -87 -36 -17 -40 -17 -82 -1 -25 9 -47 25 -50 36 -13
41 -56 79 -88 79 -72 -1 -117 -55 -117 -141 0 -84 -53 -139 -90 -94 -23 28
-82 161 -97 219 -14 56 -13 144 4 213 11 48 165 91 403 114 69 6 131 12 138
12 7 0 2 11 -12 26 -46 49 -60 126 -31 180 15 30 59 51 106 51 37 0 43 12 19
43 -26 33 -94 59 -147 56 -51 -3 -59 15 -9 19 23 2 47 15 71 38 32 30 43 34
91 34 38 0 54 -4 54 -13 0 -19 -39 -53 -74 -64 l-28 -9 41 -27 c22 -15 47 -40
55 -56 22 -41 65 -57 104 -37 17 9 46 16 64 16 23 0 42 10 69 36 35 34 105 67
122 57 11 -7 -2 -23 -19 -23 -25 0 -94 -49 -94 -67 0 -4 18 -16 39 -26 66 -30
71 -138 9 -204 l-21 -23 114 0 c63 0 184 -9 270 -20 235 -30 348 -71 368 -133
9 -29 20 -161 37 -440 5 -99 8 -107 27 -112 12 -2 153 -23 312 -45 282 -39
401 -62 418 -79 22 -22 38 -521 18 -574 -5 -13 -25 -41 -45 -61 -19 -21 -39
-52 -45 -69 -71 -238 -93 -250 -141 -75 -29 105 -65 193 -108 256 -60 92 -104
94 -174 10 -23 -29 -62 -72 -85 -96 -42 -43 -42 -44 -96 -37 -51 7 -56 5 -89
-24 -50 -43 -71 -40 -115 18 -46 59 -67 73 -117 80 -35 5 -43 12 -69 56 -47
80 -109 125 -172 125 -33 0 -62 15 -91 49 -21 24 -28 26 -101 26 -71 0 -85 -3
-129 -30 -64 -39 -107 -106 -174 -268 -32 -77 -61 -132 -73 -138 -24 -13 -94
-14 -127 -1 -35 14 -60 45 -111 136 -92 165 -103 181 -139 196 -63 26 -147
-44 -210 -175 -29 -58 -47 -85 -63 -89 -12 -3 -63 -3 -114 1 -107 7 -134 -4
-153 -61 -14 -43 -34 -50 -94 -35 -45 11 -47 11 -69 -17 -29 -37 -55 -100 -82
-207 -22 -82 -22 -88 -6 -97 11 -6 108 -5 257 1 131 6 583 11 1004 12 957 1
1484 -16 1885 -64 379 -45 513 -86 554 -173 50 -103 70 -324 52 -591 -11 -174
-37 -442 -47 -483 -10 -48 18 -8 75 106 203 405 302 773 332 1235 12 185 2
395 -32 622 -83 573 -349 1128 -734 1534 -77 82 -265 246 -335 294 -25 17 -47
34 -50 37 -14 19 -222 137 -340 194 -315 151 -604 222 -1000 246 -159 9 -210
10 -330 3z m1158 -210 c-2 -10 -10 -18 -18 -18 -8 0 -16 8 -18 18 -2 12 3 17
18 17 15 0 20 -5 18 -17z m-2218 -108 c0 -18 -5 -25 -19 -25 -11 0 -23 5 -26
10 -11 18 3 40 25 40 15 0 20 -7 20 -25z m-32 -373 c2 -7 -6 -12 -17 -12 -21
0 -27 11 -14 24 9 9 26 2 31 -12z m2561 -97 c-3 -40 -49 -57 -59 -20 -8 28 20
54 43 41 9 -6 17 -15 16 -21z m-1164 -35 c0 -18 -6 -26 -23 -28 -24 -4 -38 18
-28 44 3 9 15 14 28 12 17 -2 23 -10 23 -28z m-1365 -46 c11 -12 11 -18 -1
-30 -13 -12 -18 -12 -34 0 -16 12 -17 16 -6 30 17 20 25 20 41 0z m-283 -124
c10 0 13 -6 9 -16 -3 -9 -6 -19 -6 -24 0 -4 -11 -10 -24 -12 -20 -4 -25 0 -29
21 -5 24 24 61 31 40 2 -5 11 -9 19 -9z m-30 -96 c3 -8 -1 -22 -9 -30 -13 -14
-17 -14 -32 1 -13 13 -14 20 -5 31 15 19 38 18 46 -2z m2703 -144 c0 -19 25
-34 41 -24 22 13 29 -9 9 -31 -15 -16 -19 -29 -14 -49 7 -30 -2 -33 -28 -9
-17 15 -19 15 -36 0 -18 -17 -42 -23 -42 -11 0 3 5 15 11 26 9 17 7 24 -17 44
l-29 23 33 1 c28 0 35 5 43 30 11 31 29 32 29 0z m930 -140 c26 -14 15 -50
-15 -50 -25 0 -39 32 -22 49 13 13 14 13 37 1z m-140 -75 c0 -8 -7 -15 -15
-15 -8 0 -15 7 -15 15 0 8 7 15 15 15 8 0 15 -7 15 -15z m-16 -41 c20 -8 20
-28 0 -44 -12 -11 -18 -10 -31 3 -13 13 -14 19 -3 31 14 18 13 18 34 10z
m-3819 -34 c0 -18 -6 -26 -23 -28 -13 -2 -25 3 -28 12 -10 26 4 48 28 44 17
-2 23 -10 23 -28z m4015 -245 c0 -8 -6 -15 -14 -15 -17 0 -28 14 -19 24 12 12
33 6 33 -9z m-4175 -305 c31 0 31 -7 4 -29 -19 -15 -20 -20 -10 -40 16 -29 6
-39 -17 -18 -10 10 -22 17 -27 17 -5 0 -17 -7 -27 -17 -23 -21 -31 -13 -19 20
9 22 6 29 -17 46 l-27 20 31 1 c26 0 34 6 45 32 l13 32 13 -32 c10 -24 19 -32
38 -32z m3930 -150 c3 -6 -1 -13 -10 -16 -19 -8 -30 0 -20 15 8 14 22 14 30 1z
m-270 -25 c0 -25 -40 -33 -49 -10 -9 24 2 37 27 33 14 -2 22 -10 22 -23z m419
-67 c6 -13 18 -23 26 -24 43 -3 44 -4 21 -20 -19 -14 -22 -22 -16 -51 l6 -35
-30 18 c-24 14 -33 16 -43 6 -19 -19 -31 -14 -24 12 4 16 0 29 -14 41 -20 18
-18 37 3 34 27 -3 35 2 41 27 7 28 13 27 30 -8z m-1557 -179 c16 -16 5 -39
-17 -39 -23 0 -32 13 -24 34 7 19 25 21 41 5z m-497 -34 c0 -8 -7 -15 -15 -15
-8 0 -15 7 -15 15 0 8 7 15 15 15 8 0 15 -7 15 -15z m1168 -273 c2 -7 -3 -12
-12 -12 -9 0 -16 7 -16 16 0 17 22 14 28 -4z m1232 -428 c0 -17 -22 -14 -28 4
-2 7 3 12 12 12 9 0 16 -7 16 -16z"/>
<path d="M3650 9047 c-20 -15 -14 -47 8 -47 10 0 23 9 30 20 10 16 10 20 -2
20 -8 0 -16 4 -18 9 -2 5 -10 4 -18 -2z"/>
<path d="M7377 8970 c-14 -38 -18 -40 -56 -40 -49 0 -52 -9 -11 -33 32 -19 36
-39 20 -83 -15 -38 -7 -40 34 -9 l35 27 36 -28 c41 -31 50 -28 35 10 -16 44
-12 64 20 83 41 24 38 33 -13 33 -42 0 -44 2 -57 40 -7 22 -16 40 -20 40 -4 0
-14 -18 -23 -40z"/>
<path d="M9212 8837 c-5 -7 -9 -19 -9 -28 0 -22 44 -22 50 1 6 22 -27 44 -41
27z"/>
<path d="M2959 8780 c-14 -44 -15 -45 -64 -50 l-49 -5 38 -31 c38 -30 39 -31
26 -68 -16 -49 -8 -54 30 -22 l31 26 37 -25 c20 -13 38 -23 40 -20 2 2 -2 21
-8 41 -13 37 -12 38 26 71 l39 33 -48 0 c-43 0 -48 3 -57 28 -26 69 -26 69
-41 22z"/>
<path d="M1972 8712 c-16 -11 -3 -47 18 -47 21 0 34 36 18 47 -7 4 -15 8 -18
8 -3 0 -11 -4 -18 -8z"/>
<path d="M8462 8664 c-21 -22 -14 -44 13 -44 28 0 34 23 12 44 -10 11 -15 11
-25 0z"/>
<path d="M5028 8218 c-10 -12 -18 -27 -18 -33 0 -5 7 -2 15 8 7 10 22 25 32
32 14 11 15 14 3 15 -8 0 -23 -10 -32 -22z"/>
<path d="M5280 8225 c-20 -24 -6 -28 15 -5 10 11 13 20 8 20 -6 0 -16 -7 -23
-15z"/>
<path d="M8352 8152 c-9 -26 -16 -32 -38 -32 l-28 0 21 -19 c15 -14 19 -28 16
-48 -5 -23 -3 -26 8 -15 7 6 22 12 34 12 12 0 27 -6 34 -12 11 -11 12 -8 7 16
-6 24 -3 33 16 48 l23 18 -27 0 c-22 0 -31 7 -41 32 l-13 33 -12 -33z"/>
<path d="M2322 8148 c-8 -20 -19 -28 -37 -28 -30 0 -32 -11 -6 -27 13 -8 17
-19 14 -37 -6 -28 5 -34 25 -14 10 10 17 10 32 0 28 -17 33 -15 27 10 -4 15 1
30 15 45 l21 23 -29 0 c-24 0 -32 6 -41 28 l-10 27 -11 -27z"/>
<path d="M1358 8088 c-13 -41 -14 -42 -58 -44 -25 -1 -47 -2 -50 -3 -3 0 12
-13 33 -28 40 -29 41 -31 21 -102 l-7 -24 38 28 37 29 39 -22 c41 -24 45 -20
29 22 -12 33 -6 48 30 70 41 24 37 37 -9 31 -43 -5 -55 4 -66 48 -11 42 -22
41 -37 -5z"/>
<path d="M5216 8049 c-19 -19 -19 -19 22 -19 45 0 50 4 28 26 -19 18 -27 17
-50 -7z"/>
<path d="M9451 7748 c-5 -13 -12 -31 -15 -40 -4 -14 -16 -18 -51 -18 -25 0
-45 -4 -45 -10 0 -5 3 -10 8 -10 4 0 20 -10 35 -23 28 -22 28 -23 14 -65 -16
-47 -11 -51 26 -22 32 25 42 25 79 -1 37 -27 43 -20 28 27 -12 37 -12 39 19
64 17 15 31 30 31 33 0 4 -20 7 -45 7 -43 0 -44 1 -55 40 -12 46 -17 49 -29
18z"/>
<path d="M969 7723 c-11 -2 -15 -12 -12 -27 4 -18 10 -22 29 -18 18 3 24 10
22 25 -3 22 -13 27 -39 20z"/>
<path d="M2343 7575 c-16 -18 -4 -50 20 -51 11 -1 17 5 17 21 0 30 -21 47 -37
30z"/>
<path d="M9167 7574 c-15 -16 -6 -42 16 -46 19 -4 23 0 22 21 0 25 -23 40 -38
25z"/>
<path d="M9850 7371 c0 -6 -7 -11 -16 -11 -13 0 -14 -3 -5 -13 6 -8 8 -17 4
-20 -3 -4 6 -7 20 -7 31 0 37 29 12 50 -10 9 -15 9 -15 1z"/>
<path d="M8468 7216 c-11 -8 -14 -17 -8 -26 12 -20 39 -21 49 -1 13 24 -18 44
-41 27z"/>
<path d="M2071 7058 c-8 -23 -17 -28 -43 -28 l-33 -1 24 -19 c18 -16 22 -26
17 -50 -6 -34 0 -37 25 -14 17 15 20 15 45 -1 l26 -17 -7 31 c-5 24 -2 33 14
43 29 18 26 28 -8 28 -23 0 -31 6 -39 28 l-10 27 -11 -27z"/>
<path d="M865 6778 c-6 -23 -13 -28 -36 -28 -33 0 -39 -16 -8 -25 16 -6 19
-12 14 -36 -7 -30 3 -37 23 -17 10 10 17 10 32 0 28 -17 33 -15 26 12 -5 19 0
29 22 45 l27 20 -32 1 c-25 0 -36 6 -47 28 l-14 27 -7 -27z"/>
<path d="M8746 6695 c-5 -20 -13 -25 -39 -25 l-32 -1 24 -19 c17 -15 22 -26
17 -45 -7 -28 -4 -30 23 -13 15 9 24 8 45 -5 l26 -17 -7 31 c-5 24 -1 33 18
47 l24 17 -35 5 c-27 4 -36 10 -38 28 -4 29 -18 28 -26 -3z"/>
<path d="M1700 6537 c-20 -16 -14 -47 10 -47 23 0 35 30 18 46 -10 10 -16 10
-28 1z"/>
<path d="M9950 6415 c-7 -18 -17 -25 -36 -25 -27 0 -27 0 -8 -21 11 -12 17
-32 16 -46 -3 -22 -2 -23 16 -12 16 10 26 10 47 1 27 -12 27 -12 20 15 -5 21
-1 31 17 45 l23 18 -28 0 c-20 0 -30 7 -37 25 -5 14 -12 25 -15 25 -3 0 -10
-11 -15 -25z"/>
<path d="M1030 6217 c0 -9 -4 -17 -9 -17 -5 0 -7 -9 -4 -20 7 -25 39 -26 45
-2 3 9 -4 26 -14 36 -16 17 -18 18 -18 3z"/>
<path d="M9113 6184 c-18 -18 -5 -53 17 -47 26 7 31 27 11 45 -13 11 -20 12
-28 2z"/>
<path d="M9782 5847 c-12 -15 -4 -31 20 -40 20 -7 34 33 15 45 -17 11 -23 10
-35 -5z"/>
<path d="M3983 5602 c-18 -11 -5 -48 17 -49 21 -2 35 37 17 49 -7 4 -14 8 -17
8 -3 0 -10 -4 -17 -8z"/>
<path d="M2011 5561 c-19 -12 -6 -41 19 -41 16 0 21 5 18 22 -3 25 -17 32 -37
19z"/>
<path d="M6328 5463 c-3 -4 -11 -29 -18 -55 l-12 -47 -66 -3 -67 -3 52 -37 52
-37 -19 -57 c-11 -32 -18 -59 -17 -61 2 -2 25 13 51 33 46 35 47 35 74 19 15
-10 37 -27 49 -38 13 -11 25 -18 28 -15 3 2 -4 30 -14 61 l-20 56 52 38 52 38
-64 5 -64 5 -16 47 c-17 50 -26 64 -33 51z"/>
<path d="M1106 5376 c-5 -21 -12 -26 -36 -26 -35 0 -38 -10 -9 -28 16 -10 19
-19 14 -43 l-7 -31 26 17 c25 17 28 17 46 0 25 -23 36 -14 20 16 -11 19 -9 25
11 40 13 10 29 19 35 19 14 0 14 33 1 42 -15 9 -37 -2 -37 -18 0 -24 -29 -15
-43 12 l-14 27 -7 -27z"/>
<path d="M8811 5213 c-1 -7 -7 -13 -15 -13 -9 0 -12 -7 -9 -20 3 -11 14 -20
24 -20 10 0 23 9 29 20 8 16 8 20 -4 20 -8 0 -17 6 -19 13 -4 10 -6 10 -6 0z"/>
<path d="M9712 5018 c-8 -20 -19 -28 -37 -28 -30 0 -32 -11 -5 -28 15 -9 19
-19 14 -37 -7 -28 -2 -30 26 -13 16 10 23 9 41 -7 l22 -20 -6 33 c-6 28 -3 37
16 53 l22 18 -31 1 c-24 0 -32 6 -41 28 l-10 27 -11 -27z"/>
<path d="M4794 5006 c-5 -6 -10 -20 -10 -32 0 -16 5 -20 19 -16 25 6 32 28 15
45 -10 10 -16 11 -24 3z"/>
<path d="M1860 4870 c-41 -11 -116 -40 -166 -65 -154 -76 -300 -233 -340 -363
-29 -97 -14 -241 41 -386 50 -132 180 -389 285 -563 21 -34 35 -64 32 -67 -3
-3 -23 -6 -44 -6 -128 0 -366 -79 -501 -166 -180 -117 -241 -222 -217 -378 13
-86 46 -142 109 -184 83 -56 121 -65 286 -66 128 -1 163 2 235 22 172 47 316
136 359 221 23 45 41 128 41 190 0 64 -33 191 -66 252 -15 27 -25 51 -23 54 3
2 32 0 65 -5 57 -9 295 -61 302 -66 6 -4 -26 -181 -75 -424 -66 -328 -68 -335
-78 -333 -6 1 -35 12 -65 23 -125 48 -327 35 -407 -26 -50 -38 -87 -107 -80
-153 7 -58 35 -94 65 -86 16 4 31 0 42 -10 23 -21 53 -7 75 35 21 41 19 64
-12 100 l-27 32 25 19 c67 53 182 60 296 18 75 -28 78 -31 65 -76 -91 -338
-95 -357 -95 -459 0 -84 3 -109 22 -147 46 -94 97 -105 196 -42 77 49 108 91
141 191 24 73 29 106 29 184 0 148 -34 231 -122 295 -47 34 -51 53 -28 113 27
65 134 479 170 655 19 92 42 182 51 200 20 41 152 168 209 201 56 33 88 33
114 0 18 -22 21 -41 21 -114 0 -170 -37 -271 -139 -382 -86 -93 -191 -143
-191 -90 0 9 12 53 27 99 15 45 24 85 20 89 -24 24 -97 -119 -97 -190 0 -33 6
-52 24 -73 83 -97 325 68 443 302 61 120 88 365 47 435 -27 48 -77 73 -132 66
-77 -10 -187 -70 -284 -156 -46 -40 -58 -42 -58 -9 0 24 -35 46 -87 55 -53 8
-54 7 -78 -178 -13 -98 -22 -138 -32 -138 -7 0 -13 4 -13 9 0 8 -77 45 -145
69 -48 17 -132 32 -183 32 -26 0 -52 4 -58 8 -35 22 -252 431 -300 562 -13 36
-29 109 -35 163 -16 128 -3 201 57 326 39 79 60 108 132 180 102 102 179 144
308 169 136 26 243 0 384 -94 36 -23 74 -51 85 -61 121 -108 141 -367 39 -500
-52 -68 -211 -121 -332 -109 -80 8 -165 48 -200 94 -26 34 -26 35 -8 46 41 24
56 46 56 85 0 58 -31 91 -83 91 -68 -1 -117 -55 -117 -130 0 -181 220 -280
500 -225 187 36 291 107 352 240 18 41 22 67 22 145 0 83 -4 102 -28 155 -57
119 -179 208 -387 281 -64 23 -94 27 -219 30 -122 3 -157 1 -220 -16z m690
-200 c0 -5 -5 -10 -11 -10 -5 0 -7 5 -4 10 3 6 8 10 11 10 2 0 4 -4 4 -10z
m-771 -1390 c20 -62 24 -96 25 -200 1 -110 -2 -130 -21 -170 -40 -82 -116
-156 -201 -197 -67 -32 -87 -37 -174 -41 -95 -5 -100 -4 -163 27 -128 63 -165
172 -105 309 33 73 69 120 132 168 124 96 349 185 453 180 27 -1 31 -6 54 -76z
m451 -917 c68 -83 76 -213 19 -334 -44 -93 -104 -149 -159 -149 -16 0 -19 5
-16 23 3 12 13 63 21 112 15 79 49 237 76 348 6 20 14 37 19 37 5 0 23 -17 40
-37z"/>
<path d="M8450 4785 c-83 -24 -137 -60 -230 -154 -103 -105 -144 -180 -195
-366 -20 -72 -51 -182 -70 -245 -85 -297 -165 -795 -165 -1032 l0 -98 59 0 58
0 7 38 c3 20 6 56 6 79 0 70 14 91 75 119 98 43 106 37 129 -102 34 -198 77
-296 159 -355 71 -52 174 -33 225 41 31 46 14 62 -28 26 -69 -58 -146 -18
-189 98 -12 32 -35 118 -51 190 -15 72 -33 143 -38 157 -10 25 -7 29 36 60
104 75 192 187 200 255 6 59 -25 111 -74 120 -99 18 -213 -31 -333 -145 -24
-22 -45 -41 -47 -41 -16 0 97 605 136 735 12 39 28 93 35 120 54 195 156 351
255 393 39 16 146 20 160 6 6 -6 6 -21 -2 -40 -15 -41 6 -83 54 -109 35 -19
38 -19 73 -2 40 19 55 49 55 111 0 55 -25 88 -92 122 -63 32 -136 38 -208 19z
m-159 -1258 c26 -48 -52 -186 -149 -263 -95 -75 -212 -125 -212 -90 0 37 47
136 95 201 62 84 123 141 177 165 46 20 74 16 89 -13z"/>
<path d="M6850 4753 c-274 -31 -596 -265 -795 -577 -207 -325 -259 -697 -145
-1038 97 -288 212 -375 460 -348 175 19 355 97 529 227 l74 55 -9 -48 c-26
-145 -2 -200 89 -198 84 1 164 48 280 164 l97 98 1 -61 c1 -85 10 -110 44
-126 39 -19 104 -2 161 42 93 70 100 155 10 106 -20 -10 -43 -19 -51 -19 -42
0 -45 112 -4 192 13 26 43 81 67 123 52 93 52 119 0 123 -36 3 -38 2 -67 -55
-80 -158 -325 -422 -434 -468 -39 -16 -67 -11 -67 12 0 58 189 339 323 479
123 130 208 173 256 129 26 -23 47 -14 67 27 13 28 13 39 2 73 -17 53 -64 78
-128 71 -102 -13 -263 -123 -365 -250 -68 -85 -146 -189 -180 -241 -61 -94
-194 -202 -342 -277 -146 -75 -203 -91 -323 -92 -125 -1 -148 4 -195 46 -62
53 -103 153 -136 328 -18 96 -21 137 -16 250 16 389 166 742 421 995 87 87
114 107 196 147 104 51 192 74 248 63 48 -9 110 -41 147 -75 17 -16 44 -30 60
-32 29 -3 30 -4 31 -58 0 -30 6 -68 12 -83 20 -48 15 -164 -9 -215 -38 -77
-175 -149 -269 -140 -46 5 -132 41 -174 73 -18 13 -18 15 3 41 30 39 28 94 -5
128 -37 36 -84 35 -125 -2 -27 -24 -33 -37 -36 -83 -4 -47 -1 -60 25 -100 71
-110 206 -159 343 -125 168 42 310 153 382 297 41 84 45 119 23 211 -14 61
-57 128 -82 128 -7 0 -14 4 -14 10 0 15 -73 49 -142 65 -59 14 -157 17 -238 8z
m-506 -352 c9 -15 -23 -36 -36 -23 -5 5 -7 15 -4 21 9 13 33 14 40 2z m446
-301 c0 -5 -4 -10 -10 -10 -5 0 -10 5 -10 10 0 6 5 10 10 10 6 0 10 -4 10 -10z
m-792 -199 c4 -29 -15 -43 -40 -30 -21 11 -23 30 -6 47 19 19 43 10 46 -17z"/>
<path d="M3622 4529 c-5 -14 -16 -44 -23 -67 l-12 -42 -69 0 c-37 0 -68 -3
-68 -7 0 -5 23 -23 50 -42 54 -36 58 -47 35 -111 -22 -63 -20 -65 35 -26 28
20 55 36 61 36 6 0 33 -16 60 -36 54 -39 59 -34 34 36 -8 23 -15 48 -15 55 0
7 22 28 50 46 27 19 50 37 50 41 0 4 -30 8 -67 10 l-68 3 -21 65 c-20 61 -22
64 -32 39z"/>
<path d="M622 4332 c-9 -26 -16 -32 -38 -32 l-28 0 22 -20 c16 -15 20 -28 16
-45 -4 -15 -2 -25 5 -25 6 0 11 5 11 10 0 6 9 10 19 10 11 0 23 -4 26 -10 14
-22 27 -9 22 20 -6 25 -2 32 21 44 l27 15 -32 1 c-28 0 -35 5 -46 32 l-13 33
-12 -33z"/>
<path d="M8848 4218 c-2 -17 -11 -24 -30 -26 -31 -4 -36 -16 -12 -30 12 -6 15
-18 12 -36 -6 -28 9 -35 29 -15 9 9 19 8 38 -5 l27 -18 -7 31 c-5 26 -2 35 17
51 l23 19 -32 1 c-26 0 -34 5 -39 25 -8 31 -22 32 -26 3z"/>
<path d="M4987 3785 c-254 -106 -527 -459 -545 -703 -16 -235 169 -312 414
-171 69 39 163 126 203 186 30 45 40 83 23 83 -5 0 -44 -34 -88 -76 -98 -95
-166 -147 -226 -174 -33 -14 -48 -27 -50 -43 -4 -30 -52 -32 -56 -2 -1 11 -15
27 -31 36 -19 11 -30 28 -35 51 -8 45 7 147 33 222 16 44 18 62 10 67 -15 9
-3 42 14 36 6 -2 12 -14 11 -26 -1 -19 4 -21 64 -21 125 0 248 55 350 156 84
84 117 154 117 251 0 65 -3 75 -31 110 -27 32 -37 38 -75 40 -29 2 -65 -6
-102 -22z m138 -85 c9 -15 -50 -125 -102 -192 -75 -95 -202 -180 -292 -194
-57 -9 -54 5 22 112 71 102 199 234 254 263 41 21 108 28 118 11z m-138 -326
c7 -18 -17 -38 -31 -24 -11 11 -1 40 14 40 6 0 13 -7 17 -16z"/>
<path d="M8970 3787 c-139 -58 -305 -208 -422 -382 -40 -59 -104 -202 -118
-264 -29 -123 12 -241 98 -282 103 -50 278 6 417 133 63 58 135 152 135 178 0
23 -29 7 -80 -46 -180 -182 -336 -258 -401 -193 -20 20 -21 29 -16 103 3 44
15 111 27 149 l21 67 77 0 c132 0 259 58 363 165 117 119 144 283 61 378 -21
24 -94 22 -162 -6z m135 -87 c10 -16 -37 -108 -90 -179 -78 -103 -209 -192
-304 -207 -52 -8 -52 0 1 79 82 122 186 232 273 290 41 28 108 37 120 17z"/>
<path d="M9552 3731 c-48 -23 -63 -34 -155 -113 -180 -155 -225 -234 -182
-318 21 -41 101 -79 199 -96 125 -21 126 -22 126 -48 0 -95 -138 -283 -269
-368 -77 -48 -103 -33 -111 66 -6 72 -25 83 -65 40 -19 -21 -25 -38 -25 -75 0
-129 149 -156 301 -54 87 58 211 175 266 250 42 56 43 59 24 67 -12 4 -21 12
-21 18 0 17 31 24 41 9 6 -9 9 6 9 42 0 48 -4 59 -27 81 -46 42 -92 61 -192
78 -95 16 -101 38 -41 156 46 92 83 139 139 179 35 24 45 26 66 17 13 -6 35
-27 47 -47 27 -41 42 -44 64 -10 21 32 13 90 -15 119 -30 29 -123 33 -179 7z"/>
<path d="M3489 3725 c-135 -50 -224 -121 -361 -290 -112 -139 -215 -310 -222
-369 -1 -11 -8 -34 -14 -49 -7 -16 -12 -52 -12 -81 0 -62 24 -101 69 -111 38
-8 122 19 188 61 52 33 161 137 190 180 23 36 33 20 33 -54 0 -76 15 -107 56
-115 80 -15 214 78 214 148 0 19 -36 19 -70 0 -41 -23 -57 -18 -70 21 -20 60
3 128 94 280 22 35 36 72 36 92 0 30 -2 32 -37 32 -37 0 -39 -3 -72 -65 -65
-127 -232 -320 -360 -415 -71 -54 -106 -67 -127 -50 -19 17 8 82 80 195 133
206 312 401 404 441 31 14 37 13 76 -6 54 -25 53 -26 71 10 32 61 11 120 -51
146 -40 17 -68 17 -115 -1z"/>
<path d="M4193 3721 c-149 -54 -317 -220 -411 -407 -54 -108 -67 -293 -26
-365 42 -73 160 -99 270 -61 140 49 305 197 330 297 10 38 -1 32 -101 -60
-207 -191 -308 -222 -351 -108 -16 40 -16 50 -2 122 49 247 271 498 456 514
47 4 66 2 77 -10 23 -22 18 -49 -12 -71 -25 -18 -26 -21 -10 -28 23 -8 57 22
57 50 0 33 -42 98 -79 123 -43 29 -124 30 -198 4z m-317 -787 c-7 -19 -32 -18
-40 3 -10 25 24 50 37 27 5 -8 6 -22 3 -30z"/>
<path d="M10101 3680 c-11 -39 -13 -40 -56 -40 -53 0 -56 -8 -15 -35 32 -21
36 -38 20 -81 -14 -36 -7 -40 28 -15 17 12 35 21 42 21 7 0 25 -9 42 -21 35
-25 42 -21 28 15 -16 44 -12 64 20 83 41 24 38 33 -13 33 -37 0 -46 4 -55 25
-7 14 -12 32 -12 40 0 29 -17 14 -29 -25z"/>
<path d="M6460 3131 c-22 -9 -23 -38 -2 -43 26 -7 47 18 30 36 -7 7 -20 10
-28 7z"/>
<path d="M5910 2889 c-13 -17 -19 -19 -42 -10 l-26 10 16 -29 c16 -27 15 -30
-3 -51 l-20 -22 33 6 c28 6 37 3 53 -16 l18 -22 1 27 c0 19 8 32 28 42 l27 14
-27 11 c-20 8 -28 17 -28 36 0 30 -10 31 -30 4z"/>
<path d="M3436 2792 c-14 -16 -26 -20 -50 -15 -30 6 -31 6 -13 -14 21 -24 22
-37 2 -53 -24 -20 -17 -29 15 -20 25 7 33 5 43 -11 16 -26 27 -24 27 6 0 18 8
29 28 37 l27 11 -27 10 c-20 8 -28 19 -30 40 l-3 29 -19 -20z"/>
<path d="M4448 2802 c-23 -5 -23 -38 0 -44 26 -7 47 18 30 35 -7 7 -21 11 -30
9z"/>
<path d="M8176 2351 c-13 -14 -26 -19 -42 -15 -27 7 -29 2 -12 -26 10 -15 10
-22 0 -32 -6 -6 -12 -18 -12 -25 0 -11 4 -11 22 -2 18 10 24 8 39 -10 22 -28
27 -27 31 7 2 19 9 28 26 30 29 4 28 16 -2 30 -15 7 -26 21 -28 38 l-3 26 -19
-21z"/>
<path d="M7187 2134 c-20 -24 -34 -33 -45 -29 -10 4 -30 9 -47 12 l-30 6 28
-36 c15 -19 27 -39 27 -42 0 -3 -12 -23 -27 -42 l-28 -37 25 7 c74 21 76 21
101 -20 l24 -38 5 49 c5 48 6 50 48 64 48 16 47 22 -6 37 -35 10 -37 13 -42
58 l-5 47 -28 -36z"/>
<path d="M4555 2024 c0 -15 7 -24 22 -27 12 -2 20 -1 18 4 -3 4 -1 10 4 14 17
10 0 35 -22 33 -16 -1 -22 -9 -22 -24z"/>
<path d="M3174 1799 c-18 -17 -25 -19 -43 -10 -24 13 -28 2 -9 -29 10 -15 9
-22 -5 -38 -21 -23 -12 -35 15 -21 16 9 25 6 44 -12 l24 -22 0 29 c0 24 6 32
28 41 l27 10 -27 11 c-17 7 -28 20 -30 37 l-3 26 -21 -22z"/>
<path d="M6608 1762 c-23 -5 -23 -38 0 -44 26 -7 47 18 30 35 -7 7 -21 11 -30
9z"/>
<path d="M5642 1691 c-11 -19 -19 -22 -43 -17 -33 6 -34 4 -17 -24 10 -16 10
-24 0 -40 -17 -28 -16 -30 17 -24 23 5 32 2 41 -16 14 -26 31 -10 23 21 -4 13
2 20 21 25 33 8 33 20 2 28 -19 5 -25 14 -28 39 l-3 32 -13 -24z"/>
<path d="M8890 1701 c-19 -8 -20 -33 -1 -45 8 -5 18 -3 27 6 12 11 12 17 2 30
-8 9 -20 13 -28 9z"/>
</g>
</svg>
